<svg xmlns="http://www.w3.org/2000/svg" viewBox="0 0 814.53 224"><defs><style>.cls-1{fill:#ce0e2d;}.cls-2{fill:#fff;}</style></defs><title>Asset 4</title><g id="Layer_2" data-name="Layer 2"><g id="Layer_1-2" data-name="Layer 1"><rect class="cls-1" width="224" height="224"/><path class="cls-2" d="M752.46,119,765,86l12.55,33Zm25.61-51.67H752L715.5,156.67h22.61l8.3-21.8h37.21l8.31,21.8h22.6ZM594,141.14c-14.72,0-26.64-13.29-26.64-29.68s11.92-29.7,26.64-29.7,26.64,13.3,26.64,29.7S608.7,141.14,594,141.14m0-76.88a47.19,47.19,0,1,0,47.2,47.2A47.2,47.2,0,0,0,594,64.26M407.75,141.14c-14.71,0-26.63-13.29-26.63-29.68s11.92-29.7,26.63-29.7,26.65,13.3,26.65,29.7-11.93,29.68-26.65,29.68m0-76.88a47.19,47.19,0,1,0,47.2,47.2,47.18,47.18,0,0,0-47.2-47.2m116.66,3.06-23.13,36.15L478.14,67.32H455.52l35.8,56v33.32h19.91V123.36l35.79-56Zm195.85,0h-76.4V84.45h28.3v72.22h19.93V84.45h28.17ZM280,84.45h28.3v72.22h19.92V84.45H356.4V67.32H280Z"/><path class="cls-2" d="M112,61.15C69.7,61.15,37.33,83,37.33,112c0,28.08,31.55,50.85,74.67,50.85s74.67-22.77,74.67-50.85c0-29-32.38-50.85-74.67-50.85M158.56,83c1.55,6.27-5.75,14.1-29.24,16.67-1.57-16-6.3-29.46-14.15-32.31a94.09,94.09,0,0,1,29.31,5.25c8.16,3.08,13.24,7,14.08,10.39m-34.8,28.79c0,20.23-6.08,28.62-11.76,28.62s-11.76-8.39-11.76-28.62c0-.07,0-.14,0-.21,3.77.32,7.7.49,11.75.49s8-.17,11.75-.49c0,.07,0,.14,0,.21M112,100.48c-4,0-7.63-.11-11-.32,1.79-13.23,6.53-20.92,11-20.92s9.23,7.69,11,20.92q-5.08.32-11,.32M65.44,83c.83-3.36,5.86-7.27,14-10.35a94.18,94.18,0,0,1,29.44-5.29C101,70.17,96.25,83.66,94.68,99.63,71.18,97.06,63.88,89.23,65.44,83M48.35,110.17A34.2,34.2,0,0,1,56.2,88.08c.65,11.35,16,19.82,37.91,22.79,0,.29,0,.59,0,.88,0,27.4,7,41.92,14.81,44.92-33.43-1.2-60.56-21.79-60.56-46.5M115,156.68c7.84-3.13,15-18.72,15-44.93,0-.29,0-.59,0-.88,21.9-3,37.26-11.44,37.91-22.79a34.2,34.2,0,0,1,7.86,22.09c0,24.74-27.21,45.36-60.71,46.51"/></g></g></svg>